<svg width="140" height="33" viewBox="0 0 140 33" fill="none" xmlns="http://www.w3.org/2000/svg">
<path d="M46.4239 20.7256H41.7079L40.9519 22.9576H37.7299L42.3019 10.3216H45.8659L50.4379 22.9576H47.1799L46.4239 20.7256ZM45.6319 18.3496L44.0659 13.7236L42.5179 18.3496H45.6319ZM56.3474 20.0776L58.5254 12.9136H61.8014L58.2374 22.9576H54.4394L50.8754 12.9136H54.1694L56.3474 20.0776ZM64.645 11.8696C64.105 11.8696 63.661 11.7136 63.313 11.4016C62.977 11.0776 62.809 10.6816 62.809 10.2136C62.809 9.73358 62.977 9.33758 63.313 9.02558C63.661 8.70158 64.105 8.53958 64.645 8.53958C65.173 8.53958 65.605 8.70158 65.941 9.02558C66.289 9.33758 66.463 9.73358 66.463 10.2136C66.463 10.6816 66.289 11.0776 65.941 11.4016C65.605 11.7136 65.173 11.8696 64.645 11.8696ZM66.175 12.9136V22.9576H63.097V12.9136H66.175ZM67.7936 17.9176C67.7936 16.8856 67.9856 15.9796 68.3696 15.1996C68.7656 14.4196 69.2996 13.8196 69.9716 13.3996C70.6436 12.9796 71.3936 12.7696 72.2216 12.7696C72.8816 12.7696 73.4816 12.9076 74.0216 13.1836C74.5736 13.4596 75.0056 13.8316 75.3176 14.2996V9.63758H78.3956V22.9576H75.3176V21.5176C75.0296 21.9976 74.6156 22.3816 74.0756 22.6696C73.5476 22.9576 72.9296 23.1016 72.2216 23.1016C71.3936 23.1016 70.6436 22.8916 69.9716 22.4716C69.2996 22.0396 68.7656 21.4336 68.3696 20.6536C67.9856 19.8616 67.7936 18.9496 67.7936 17.9176ZM75.3176 17.9356C75.3176 17.1676 75.1016 16.5616 74.6696 16.1176C74.2496 15.6736 73.7336 15.4516 73.1216 15.4516C72.5096 15.4516 71.9876 15.6736 71.5556 16.1176C71.1356 16.5496 70.9256 17.1496 70.9256 17.9176C70.9256 18.6856 71.1356 19.2976 71.5556 19.7536C71.9876 20.1976 72.5096 20.4196 73.1216 20.4196C73.7336 20.4196 74.2496 20.1976 74.6696 19.7536C75.1016 19.3096 75.3176 18.7036 75.3176 17.9356ZM93.5268 10.3216V12.7876H90.1788V22.9576H87.1008V12.7876H83.7528V10.3216H93.5268ZM99.6436 23.1016C98.6596 23.1016 97.7716 22.8916 96.9796 22.4716C96.1996 22.0516 95.5816 21.4516 95.1256 20.6716C94.6816 19.8916 94.4596 18.9796 94.4596 17.9356C94.4596 16.9036 94.6876 15.9976 95.1436 15.2176C95.5996 14.4256 96.2236 13.8196 97.0156 13.3996C97.8076 12.9796 98.6956 12.7696 99.6796 12.7696C100.664 12.7696 101.552 12.9796 102.344 13.3996C103.136 13.8196 103.76 14.4256 104.216 15.2176C104.672 15.9976 104.9 16.9036 104.9 17.9356C104.9 18.9676 104.666 19.8796 104.198 20.6716C103.742 21.4516 103.112 22.0516 102.308 22.4716C101.516 22.8916 100.628 23.1016 99.6436 23.1016ZM99.6436 20.4376C100.232 20.4376 100.73 20.2216 101.138 19.7896C101.558 19.3576 101.768 18.7396 101.768 17.9356C101.768 17.1316 101.564 16.5136 101.156 16.0816C100.76 15.6496 100.268 15.4336 99.6796 15.4336C99.0796 15.4336 98.5816 15.6496 98.1856 16.0816C97.7896 16.5016 97.5916 17.1196 97.5916 17.9356C97.5916 18.7396 97.7836 19.3576 98.1676 19.7896C98.5636 20.2216 99.0556 20.4376 99.6436 20.4376ZM105.921 17.9176C105.921 16.8856 106.113 15.9796 106.497 15.1996C106.893 14.4196 107.427 13.8196 108.099 13.3996C108.771 12.9796 109.521 12.7696 110.349 12.7696C111.009 12.7696 111.609 12.9076 112.149 13.1836C112.701 13.4596 113.133 13.8316 113.445 14.2996V9.63758H116.523V22.9576H113.445V21.5176C113.157 21.9976 112.743 22.3816 112.203 22.6696C111.675 22.9576 111.057 23.1016 110.349 23.1016C109.521 23.1016 108.771 22.8916 108.099 22.4716C107.427 22.0396 106.893 21.4336 106.497 20.6536C106.113 19.8616 105.921 18.9496 105.921 17.9176ZM113.445 17.9356C113.445 17.1676 113.229 16.5616 112.797 16.1176C112.377 15.6736 111.861 15.4516 111.249 15.4516C110.637 15.4516 110.115 15.6736 109.683 16.1176C109.263 16.5496 109.053 17.1496 109.053 17.9176C109.053 18.6856 109.263 19.2976 109.683 19.7536C110.115 20.1976 110.637 20.4196 111.249 20.4196C111.861 20.4196 112.377 20.1976 112.797 19.7536C113.229 19.3096 113.445 18.7036 113.445 17.9356ZM123.321 23.1016C122.337 23.1016 121.449 22.8916 120.657 22.4716C119.877 22.0516 119.259 21.4516 118.803 20.6716C118.359 19.8916 118.137 18.9796 118.137 17.9356C118.137 16.9036 118.365 15.9976 118.821 15.2176C119.277 14.4256 119.901 13.8196 120.693 13.3996C121.485 12.9796 122.373 12.7696 123.357 12.7696C124.341 12.7696 125.229 12.9796 126.021 13.3996C126.813 13.8196 127.437 14.4256 127.893 15.2176C128.349 15.9976 128.577 16.9036 128.577 17.9356C128.577 18.9676 128.343 19.8796 127.875 20.6716C127.419 21.4516 126.789 22.0516 125.985 22.4716C125.193 22.8916 124.305 23.1016 123.321 23.1016ZM123.321 20.4376C123.909 20.4376 124.407 20.2216 124.815 19.7896C125.235 19.3576 125.445 18.7396 125.445 17.9356C125.445 17.1316 125.241 16.5136 124.833 16.0816C124.437 15.6496 123.945 15.4336 123.357 15.4336C122.757 15.4336 122.259 15.6496 121.863 16.0816C121.467 16.5016 121.269 17.1196 121.269 17.9356C121.269 18.7396 121.461 19.3576 121.845 19.7896C122.241 20.2216 122.733 20.4376 123.321 20.4376ZM134.296 23.1016C133.42 23.1016 132.64 22.9516 131.956 22.6516C131.272 22.3516 130.732 21.9436 130.336 21.4276C129.94 20.8996 129.718 20.3116 129.67 19.6636H132.712C132.748 20.0116 132.91 20.2936 133.198 20.5096C133.486 20.7256 133.84 20.8336 134.26 20.8336C134.644 20.8336 134.938 20.7616 135.142 20.6176C135.358 20.4616 135.466 20.2636 135.466 20.0236C135.466 19.7356 135.316 19.5256 135.016 19.3936C134.716 19.2496 134.23 19.0936 133.558 18.9256C132.838 18.7576 132.238 18.5836 131.758 18.4036C131.278 18.2116 130.864 17.9176 130.516 17.5216C130.168 17.1136 129.994 16.5676 129.994 15.8836C129.994 15.3076 130.15 14.7856 130.462 14.3176C130.786 13.8376 131.254 13.4596 131.866 13.1836C132.49 12.9076 133.228 12.7696 134.08 12.7696C135.34 12.7696 136.33 13.0816 137.05 13.7056C137.782 14.3296 138.202 15.1576 138.31 16.1896H135.466C135.418 15.8416 135.262 15.5656 134.998 15.3616C134.746 15.1576 134.41 15.0556 133.99 15.0556C133.63 15.0556 133.354 15.1276 133.162 15.2716C132.97 15.4036 132.874 15.5896 132.874 15.8296C132.874 16.1176 133.024 16.3336 133.324 16.4776C133.636 16.6216 134.116 16.7656 134.764 16.9096C135.508 17.1016 136.114 17.2936 136.582 17.4856C137.05 17.6656 137.458 17.9656 137.806 18.3856C138.166 18.7936 138.352 19.3456 138.364 20.0416C138.364 20.6296 138.196 21.1576 137.86 21.6256C137.536 22.0816 137.062 22.4416 136.438 22.7056C135.826 22.9696 135.112 23.1016 134.296 23.1016Z" fill="white"/>
<path d="M0 32.5581L16.7313 0L21.2532 9.04393L0 32.5581Z" fill="#ECECEC" fill-opacity="0.5"/>
<path d="M33.4625 32.5581L16.7313 0L12.2093 9.04393L33.4625 32.5581Z" fill="#ECECEC" fill-opacity="0.5"/>
</svg>
